<svg xmlns="http://www.w3.org/2000/svg" width="512" height="512" viewBox="-120 -120 240 240"><metadata><rdf:RDF xmlns:rdf="http://www.w3.org/1999/02/22-rdf-syntax-ns#" xmlns:dc="http://purl.org/dc/elements/1.1/"><rdf:Description><dc:creator>RealFaviconGenerator</dc:creator><dc:source>https://realfavicongenerator.net</dc:source></rdf:Description></rdf:RDF></metadata><defs>
    <linearGradient id="bg" x1="0" y1="-120" x2="0" y2="120" gradientUnits="userSpaceOnUse">
      <stop offset="0%" stop-color="#1F1F1F"></stop>
      <stop offset="100%" stop-color="#0F0F0F"></stop>
    </linearGradient>
  </defs><rect x="-120" y="-120" width="240" height="240" fill="url(#bg)"></rect><g opacity="0.15" transform="translate(2,3)">
    <path d="M0,-30 L0,-52 C0,-64 10,-72 20,-68 C30,-64 34,-54 28,-46" fill="none" stroke="black" stroke-width="7" stroke-linecap="round" stroke-linejoin="round"></path>
    <path d="M0,-30 L-62,30 L62,30 Z" fill="none" stroke="black" stroke-width="7" stroke-linecap="round" stroke-linejoin="round"></path>
  </g><path d="M0,-30 L0,-52 C0,-64 10,-72 20,-68 C30,-64 34,-54 28,-46" fill="none" stroke="white" stroke-width="7" stroke-linecap="round" stroke-linejoin="round"></path><path d="M0,-30 L-62,30 L62,30 Z" fill="none" stroke="white" stroke-width="7" stroke-linecap="round" stroke-linejoin="round"></path><g transform="translate(38, 30) rotate(-10)">
    <path d="M0,0 L0,28 L7,21 L13,34 L17,32 L11,19 L20,19 Z" fill="white" stroke="#1A1A1A" stroke-width="2" stroke-linejoin="round"></path>
  </g></svg>